<svg width="301" height="169" viewBox="0 0 301 169" fill="none" xmlns="http://www.w3.org/2000/svg">
<path d="M275.382 35.9225H195.02V92.4368H275.382V35.9225Z" fill="#D0E1E1"/>
<path d="M273.529 37.7213H197.049V90.64H273.529V37.7213Z" fill="#E5EEEE"/>
<path d="M203.316 79.7797C203.18 79.7784 203.05 79.73 202.947 79.6429C202.833 79.545 202.764 79.4065 202.752 79.2575C202.741 79.1085 202.789 78.9612 202.887 78.8475L211.259 69.1235C211.351 69.0175 211.479 68.9491 211.618 68.9317C211.757 68.9143 211.898 68.949 212.013 69.0292L218.538 73.5975L229.427 60.8863C229.522 60.778 229.655 60.7098 229.798 60.6959C229.942 60.6819 230.085 60.7232 230.2 60.8112L237.542 66.6102L249.553 52.8052C249.651 52.6933 249.789 52.6241 249.937 52.6125C250.085 52.601 250.232 52.6481 250.346 52.7435L257.246 58.5406L266.855 48.7414C266.907 48.6886 266.969 48.6464 267.037 48.6174C267.105 48.5883 267.179 48.573 267.253 48.5722C267.327 48.5714 267.401 48.5851 267.47 48.6127C267.538 48.6403 267.601 48.6811 267.654 48.7328C267.707 48.7845 267.75 48.8461 267.779 48.9141C267.808 48.9822 267.823 49.0552 267.824 49.1292C267.825 49.2031 267.811 49.2765 267.783 49.3451C267.756 49.4138 267.715 49.4763 267.663 49.5292L257.688 59.7019C257.589 59.805 257.453 59.8662 257.309 59.873C257.166 59.8798 257.025 59.8317 256.915 59.7385L250.038 53.9607L238.039 67.7523C237.943 67.8599 237.811 67.9274 237.667 67.941C237.523 67.9546 237.38 67.9133 237.266 67.8255L229.923 62.0284L219.054 74.7068C218.963 74.8132 218.835 74.8818 218.696 74.8993C218.556 74.9167 218.415 74.8817 218.301 74.8012L211.783 70.2444L203.745 79.5813C203.692 79.6431 203.626 79.6929 203.552 79.7271C203.478 79.7613 203.397 79.7793 203.316 79.7797Z" fill="#D0E1E1"/>
<path d="M246.504 167.172C246.504 168.052 249.952 168.765 267.601 168.765C285.251 168.765 300.871 168.052 300.871 167.172C300.871 166.292 285.249 165.578 267.599 165.578C249.95 165.578 246.504 166.294 246.504 167.172Z" fill="#E5EEEE"/>
<path d="M248.035 78.9881C248.421 79.6487 250.518 81.877 249.372 82.6243C248.553 83.1539 246.176 80.0878 245.627 79.5582C242.226 76.2841 237.303 77.1296 236.795 82.6589C238.791 80.2708 246.205 81.2549 246.744 84.7004C244.004 85.5979 241.276 82.5819 238.545 83.098C236.342 83.5102 233.552 86.2354 233.972 88.6332C236.238 86.686 239.245 85.7924 240.997 86.5146C243.316 87.466 241.77 88.7487 240.128 88.6717C238.035 88.5735 234.884 89.0087 233.774 91.3314C232.868 93.2323 234.609 95.422 233.915 97.3846C237.125 97.7505 238.833 101.87 241.838 101.699C245.722 101.475 246.715 96.3311 247.36 93.4961C247.598 92.4503 247.954 88.9625 249.173 89.7483C251.088 90.9828 247.217 96.7259 246.815 98.6383C252.377 99.1025 250.199 90.536 252.066 88.1652C253.476 86.376 252.964 91.8244 252.838 92.5312C252.305 95.3989 251.76 97.1535 250.398 99.2046C251.596 98.7423 253.401 98.022 254.085 96.9493C255.196 95.216 255.973 93.4422 257.163 91.7204C258.624 89.6019 259.853 82.37 255.256 83.0403C257.165 81.7518 255.673 77.6111 254.436 76.3323C252.697 74.5277 250.792 73.2508 248.16 72.6326C248.464 73.6244 252.489 78.6819 250.792 79.5659C249.89 80.0397 248.174 74.9745 247.376 74.1386C245.171 71.8275 242.234 74.7935 242.234 74.7935C242.3 74.986 244.566 75.8373 244.79 75.9702C246.054 76.7348 247.273 77.6958 248.035 78.9881Z" fill="#7EBD42"/>
<path d="M257.99 93.9333C259.536 90.8865 264.202 88.3289 267.334 90.6592C268.78 91.7339 271.489 97.3114 269.46 97.5695C269.021 97.6253 260.052 93.2515 262.028 96.7471C262.662 97.866 267.093 97.71 268.303 98.4053C269.732 99.2219 271.187 100.961 270.49 102.723C268.312 100.691 263.107 98.2763 262.152 99.7669C261.225 101.213 266.314 102.014 267.118 102.44C271.176 104.599 275.097 110.579 271.01 114.304C270.677 111.322 268.245 106.654 265.107 105.445C263.615 104.867 261.768 105.025 262.266 106.985C262.581 108.222 264.382 109.033 265.302 109.793C267.648 111.735 269.64 113.838 268.544 116.877C268.158 117.93 267.702 119.296 267.191 120.317C266.341 122.05 265.982 121.884 264.185 121.233C261.866 120.394 256.863 120.057 256.208 117.206C255.629 114.702 257.947 113.027 258.427 110.818C259.037 107.983 256.925 108.778 255.822 110.693C254.554 112.892 253.544 116.392 255.424 118.524C252.002 118.716 250.952 114.993 251.752 111.891C252.55 108.755 256.116 106.935 256.815 104.214C257.613 101.113 253.084 103.904 252.042 104.915C249.818 107.072 248.8 110.935 249.412 113.967C247.225 112.638 246.707 107.17 247.561 105.19C248.755 102.442 251.619 101.558 253.886 99.921C257.598 97.2401 253.124 97.6099 251.094 98.492C248.655 99.5493 246.649 101.78 246.07 104.397C245.038 101.165 246.684 96.2175 248.881 93.6483C252.552 89.3573 257.99 93.9333 257.99 93.9333Z" fill="#7EBD42"/>
<path d="M260.643 61.6702C258.112 63.0414 256.069 67.0146 258.112 69.5819C259.055 70.7663 263.823 72.8983 263.992 71.1958C264.028 70.826 260.127 63.4189 263.114 64.9886C264.08 65.4912 264.057 69.2083 264.66 70.2059C265.383 71.3826 266.888 72.5594 268.357 71.9296C266.589 70.1558 264.424 65.8552 265.651 65.0174C266.848 64.2047 267.649 68.4514 268.028 69.112C269.949 72.4669 275.089 75.5985 278.13 72.0817C275.607 71.8776 271.609 69.9536 270.507 67.3536C269.984 66.1171 270.071 64.5668 271.738 64.9366C272.789 65.1696 273.516 66.6603 274.181 67.4094C275.875 69.3354 277.69 70.9454 280.232 69.9536C281.114 69.6088 282.254 69.1832 283.102 68.7441C284.547 67.9872 284.395 67.6906 283.801 66.2019C283.028 64.276 282.629 60.0948 280.209 59.6171C278.084 59.1973 276.731 61.1791 274.874 61.6317C272.499 62.2094 273.12 60.426 274.706 59.4534C276.53 58.3383 279.456 57.4043 281.301 58.9277C281.378 56.0561 278.209 55.2684 275.616 56.008C273.023 56.7475 271.543 59.7847 269.267 60.4376C266.67 61.1829 268.913 57.3195 269.74 56.422C271.504 54.4961 274.739 53.5563 277.313 53.9954C276.136 52.1946 271.516 51.8923 269.864 52.6607C267.578 53.7296 266.902 56.1505 265.576 58.0899C263.408 61.2638 263.609 57.5121 264.303 55.7788C265.134 53.7103 266.965 51.9674 269.159 51.43C266.409 50.6462 262.276 52.1484 260.164 54.0512C256.657 57.229 260.643 61.6702 260.643 61.6702Z" fill="#7EBD42"/>
<path d="M262.832 90.6457C262.583 84.9411 266.467 84.8679 270.737 82.9805C272.324 82.2795 274.022 81.3781 271.589 81.2067C269.566 81.0642 265.661 83.695 263.889 84.6483C264.496 82.2005 265.642 78.678 267.829 77.1372C269.97 75.6408 275.183 76.4497 276.059 79.1614C278.016 76.5498 278.807 75.3827 281.786 75.3095C284.091 75.2556 286.271 76.5171 287.231 78.6221C287.762 79.8743 287.901 81.2575 287.627 82.5895C287.1 84.9777 287.173 83.9723 288.787 85.8386C289.351 86.4857 291.536 92.4926 289.894 92.6949C288.961 92.8104 285.898 88.0515 284.364 87.3755C282.113 86.3836 277.657 86.7803 281.881 88.7352C284.667 90.0275 287.716 91.0193 289.662 93.5712C291.488 95.9632 288.327 98.2801 288.667 101.315C286.98 98.9888 286.893 95.7436 284.775 93.6906C283.496 92.4503 279.829 91.3255 280.439 94.3916C280.963 97.0205 285.257 97.4346 286.058 99.8458C286.882 102.321 282.702 105.094 281.156 106.666C278.451 105.703 275.694 103.334 272.691 101.828C271.472 101.215 270.063 100.308 270.115 98.8444C270.158 97.6368 271.968 95.9266 272.685 95.0772C273.491 94.1143 276.667 88.9894 273.139 90.6187C270.417 91.8763 269.406 96.8895 269.425 99.4992C267.004 98.3012 266.057 95.1042 267.234 92.7353C268.289 90.6399 270.691 89.6962 272.171 87.9629C274.49 85.2473 272.343 85.1163 269.966 86.0003C267.123 87.0577 264.68 88.9689 262.973 91.47" fill="#7EBD42"/>
<path d="M258.566 137.756C258.637 136.716 258.115 132.529 258.054 129.836C257.544 107.12 258.44 84.3672 261.13 61.8011L262.224 61.6278C262.224 61.6278 260.025 91.7647 260.025 116.852C260.025 128.637 261.478 137.706 261.478 137.706L258.566 137.756Z" fill="#7EBD42"/>
<path d="M254.74 81.4302L255.967 125.422L256.321 138.045C256.338 138.663 257.304 138.667 257.287 138.045L256.058 94.0527L255.706 81.4302C255.689 80.812 254.723 80.8081 254.74 81.4302Z" fill="#7EBD42"/>
<path d="M257.48 138.049C260.571 136.188 261.57 131.959 260.048 128.769C259.209 127.013 257.638 126.048 255.971 125.166C253.953 124.101 251.656 122.791 252.278 120.101C252.858 117.597 255.08 115.617 256.46 113.541C257.895 111.38 259.074 109.063 260.183 106.723C262.419 102.007 264.467 97.2517 267.586 93.0243C271.104 88.2557 275.352 84.0032 278.076 78.6896C278.358 78.1388 277.525 77.6496 277.241 78.2023C274.836 82.8958 271.232 86.7669 268.005 90.8942C264.863 94.9097 262.579 99.2643 260.45 103.875C259.36 106.232 258.27 108.595 256.972 110.853C255.673 113.11 253.99 115.051 252.57 117.222C251.41 118.992 250.607 121.212 251.809 123.178C252.775 124.765 254.601 125.505 256.162 126.366C258.264 127.521 259.669 129.166 259.768 131.643C259.857 133.84 258.912 136.057 256.983 137.217C256.452 137.538 256.937 138.372 257.472 138.049H257.48Z" fill="#7EBD42"/>
<path d="M263.093 137.521C264.914 122.785 267.529 108.158 270.925 93.7021C271.882 89.641 272.899 85.5966 273.976 81.5688C274.136 80.9698 273.203 80.7137 273.044 81.3127C269.184 95.7614 266.109 110.408 263.835 125.187C263.205 129.296 262.636 133.41 262.127 137.53C262.051 138.145 263.02 138.139 263.093 137.53V137.521Z" fill="#7EBD42"/>
<path d="M265.702 137.469C264.299 122.604 262.736 107.494 256.065 93.9005C254.244 90.201 252.111 86.6626 249.689 83.3233C249.327 82.8245 248.489 83.3041 248.854 83.8086C253.088 89.6534 256.421 96.0971 258.742 102.925C261.149 110.051 262.484 117.474 263.414 124.914C263.934 129.089 264.332 133.28 264.728 137.469C264.786 138.081 265.752 138.087 265.694 137.469H265.702Z" fill="#7EBD42"/>
<path d="M240.445 92.9895C242.747 91.1252 245.074 89.2956 247.426 87.5006C249.656 85.8039 251.87 84.1842 254.487 83.1095C255.053 82.8765 254.806 81.954 254.23 82.1812C251.524 83.2906 249.244 84.9141 246.939 86.6705C244.517 88.5117 242.125 90.3908 239.763 92.3077C239.28 92.6929 239.967 93.3766 240.445 92.9895Z" fill="#BDDDA1"/>
<path d="M271.41 167.172H249.666L245.2 136.602H275.873L271.41 167.172Z" fill="#F4BF6A"/>
<path d="M271.41 167.172H267.738L269.108 136.602H275.873L271.41 167.172Z" fill="#F2AA30"/>
<path d="M247.714 167.172L247.127 163.989H273.723L273.184 167.172H247.714Z" fill="#F2AA30"/>
<path d="M257.433 104.299C258.635 109.217 259.988 114.096 261.491 118.936C261.684 119.525 262.608 119.275 262.423 118.679C260.926 113.84 259.573 108.961 258.365 104.042C258.216 103.44 257.285 103.694 257.431 104.299H257.433Z" fill="#BDDDA1"/>
<path d="M259.725 62.3828C263.565 62.4143 267.39 62.8775 271.126 63.7636C271.73 63.9062 271.987 62.9779 271.383 62.8354C267.561 61.9278 263.649 61.453 259.721 61.4198C259.099 61.4198 259.099 62.3828 259.721 62.3828H259.725Z" fill="#BDDDA1"/>
<path d="M275.187 65.3313L277.406 66.2384C277.985 66.4715 278.231 65.5412 277.663 65.3082L275.444 64.403C274.865 64.1681 274.619 65.1002 275.187 65.3313Z" fill="#BDDDA1"/>
<path d="M273.86 81.1432C275.319 86.0434 276.29 91.0752 276.758 96.1654C276.814 96.7779 277.782 96.7836 277.724 96.1654C277.254 90.9855 276.271 85.8646 274.789 80.8774C274.611 80.2862 273.68 80.5385 273.858 81.1336L273.86 81.1432Z" fill="#BDDDA1"/>
<path d="M255.634 95.6031C255.738 97.4908 256.188 99.3436 256.964 101.069C257.215 101.635 258.048 101.146 257.799 100.584C257.098 99.0102 256.691 97.3222 256.601 95.6031C256.568 94.9868 255.6 94.9829 255.634 95.6031Z" fill="#BDDDA1"/>
<path d="M3.05176e-05 94.3705L159.683 94.3705V91.366L3.05176e-05 91.366V94.3705Z" fill="#649292"/>
<path d="M69.3229 94.3705L159.683 94.3705V91.366L69.3229 91.366V94.3705Z" fill="#D0E1E1"/>
<path d="M69.3229 104.054L157.899 104.054V94.3704L69.3229 94.3704V104.054Z" fill="#E5EEEE"/>
<path d="M2.10036 104.054L69.3209 104.054V94.3704L2.10036 94.3704V104.054Z" fill="#D0E1E1"/>
<path d="M30.9514 163.207H38.1898L38.1898 104.056H30.9514L30.9514 163.207Z" fill="#D0E1E1"/>
<path d="M38.1878 163.207H40.1375L40.1375 104.056H38.1878L38.1878 163.207Z" fill="#E5EEEE"/>
<path d="M8.67213 166.094H60.4169V163.205H8.67213V166.094Z" fill="#D0E1E1"/>
<path d="M69.3229 163.205H60.415V166.094H69.3229V163.205Z" fill="#E5EEEE"/>
<path d="M119.528 163.207H126.766L126.766 104.056H119.528V163.207Z" fill="#D0E1E1"/>
<path d="M126.766 163.207H128.716V104.056H126.766L126.766 163.207Z" fill="#E5EEEE"/>
<path d="M97.2464 166.094H148.991V163.205H97.2464V166.094Z" fill="#D0E1E1"/>
<path d="M157.901 163.205H148.993V166.094H157.901V163.205Z" fill="#E5EEEE"/>
<path d="M114.72 87.4178H103.126V91.366H114.72V87.4178Z" fill="#D0E1E1"/>
<path d="M131.821 87.4178H114.699V91.366H131.821V87.4178Z" fill="#E5EEEE"/>
<path d="M131.821 88.9586H114.699V89.3438H131.821V88.9586Z" fill="#D0E1E1"/>
<path d="M131.821 87.9745H114.699V88.3596H131.821V87.9745Z" fill="#D0E1E1"/>
<path d="M131.821 89.7791H114.699V90.1642H131.821V89.7791Z" fill="#D0E1E1"/>
<path d="M114.699 88.9586H103.126V89.3438H114.699V88.9586Z" fill="#E5EEEE"/>
<path d="M114.699 87.9745H103.126V88.3596H114.699V87.9745Z" fill="#E5EEEE"/>
<path d="M114.699 89.7791H103.126V90.1642H114.699V89.7791Z" fill="#E5EEEE"/>
<path d="M28.5381 86.0234H16.9443V89.9716H28.5381V86.0234Z" fill="#D0E1E1"/>
<path d="M45.6388 86.0234H28.5167V89.9716H45.6388V86.0234Z" fill="#E5EEEE"/>
<path d="M45.6388 87.5642H28.5167V87.9494H45.6388V87.5642Z" fill="#D0E1E1"/>
<path d="M45.6388 86.5801H28.5167V86.9653H45.6388V86.5801Z" fill="#D0E1E1"/>
<path d="M45.6388 88.3846H28.5167V88.7698H45.6388V88.3846Z" fill="#D0E1E1"/>
<path d="M28.5168 87.5642H16.9443V87.9494H28.5168V87.5642Z" fill="#E5EEEE"/>
<path d="M28.5168 86.5801H16.9443V86.9653H28.5168V86.5801Z" fill="#E5EEEE"/>
<path d="M28.5168 88.3846H16.9443V88.7698H28.5168V88.3846Z" fill="#E5EEEE"/>
<path d="M22.0648 85.1799H5.8645V91.3679H22.0648V85.1799Z" fill="#649292"/>
<path d="M42.9645 85.18C42.6569 85.1784 42.3526 85.2428 42.0723 85.3687C41.7919 85.4947 41.5419 85.6792 41.3394 85.9099C40.6697 86.6833 39.8406 87.3038 38.9086 87.7292C37.9767 88.1545 36.9637 88.3747 35.9386 88.3747C34.9136 88.3747 33.9006 88.1545 32.9687 87.7292C32.0367 87.3038 31.2076 86.6833 30.5379 85.9099C30.3356 85.6789 30.0857 85.4942 29.8053 85.3682C29.5248 85.2422 29.2204 85.178 28.9128 85.18H22.0648V91.368H49.8125V85.18H42.9645Z" fill="#D0E1E1"/>
<path d="M28.5381 79.1306H16.9443V83.0788H28.5381V79.1306Z" fill="#D0E1E1"/>
<path d="M45.6388 79.1306H28.5167V83.0788H45.6388V79.1306Z" fill="#E5EEEE"/>
<path d="M45.6388 80.6714H28.5167V81.0566H45.6388V80.6714Z" fill="#D0E1E1"/>
<path d="M45.6388 79.6873H28.5167V80.0724H45.6388V79.6873Z" fill="#D0E1E1"/>
<path d="M45.6388 81.4918H28.5167V81.877H45.6388V81.4918Z" fill="#D0E1E1"/>
<path d="M28.5168 80.6714H16.9443V81.0566H28.5168V80.6714Z" fill="#E5EEEE"/>
<path d="M28.5168 79.6873H16.9443V80.0724H28.5168V79.6873Z" fill="#E5EEEE"/>
<path d="M28.5168 81.4918H16.9443V81.877H28.5168V81.4918Z" fill="#E5EEEE"/>
<path d="M22.0648 78.2871H5.8645V84.4751H22.0648V78.2871Z" fill="#649292"/>
<path d="M42.9645 78.287C42.6569 78.2855 42.3526 78.3498 42.0723 78.4758C41.7919 78.6017 41.5419 78.7863 41.3394 79.0169C40.6697 79.7904 39.8406 80.4109 38.9086 80.8362C37.9767 81.2615 36.9637 81.4817 35.9386 81.4817C34.9136 81.4817 33.9006 81.2615 32.9687 80.8362C32.0367 80.4109 31.2076 79.7904 30.5379 79.0169C30.3356 78.786 30.0857 78.6012 29.8053 78.4752C29.5248 78.3493 29.2204 78.2851 28.9128 78.287H22.0648V84.475H49.8125V78.287H42.9645Z" fill="#D0E1E1"/>
<path d="M86.7367 90.1623C84.8972 90.1623 83.8151 88.6736 83.8634 86.6956L83.9214 84.8872L84.8044 64.6688H73.0947L68.7935 86.6899C68.7124 87.1117 68.7258 87.5462 68.8326 87.9623C68.9395 88.3785 69.1372 88.7659 69.4117 89.0971C69.6862 89.4282 70.0306 89.6949 70.4204 89.878C70.8102 90.0612 71.2358 90.1563 71.6668 90.1565H83.6914" fill="#D0E1E1"/>
<path d="M94.9431 91.3045H71.6648C71.1498 91.3042 70.6413 91.1904 70.1756 90.9714C69.7099 90.7523 69.2985 90.4333 68.971 90.0373C68.6434 89.6412 68.4077 89.1779 68.2808 88.6805C68.1539 88.183 68.1389 87.6638 68.2369 87.1599L72.5266 65.1388C72.5383 65.0639 72.565 64.9921 72.6052 64.9277C72.6454 64.8633 72.6981 64.8077 72.7604 64.7641C72.8226 64.7204 72.893 64.6898 72.9674 64.6739C73.0418 64.658 73.1186 64.6572 73.1933 64.6716C73.268 64.686 73.339 64.7152 73.4022 64.7575C73.4653 64.7999 73.5192 64.8545 73.5606 64.918C73.6021 64.9816 73.6303 65.0528 73.6435 65.1275C73.6568 65.2022 73.6548 65.2787 73.6377 65.3526L69.346 87.3737C69.2789 87.7145 69.2884 88.066 69.374 88.4028C69.4595 88.7396 69.6189 89.0532 69.8406 89.3212C70.0624 89.5892 70.341 89.8049 70.6564 89.9527C70.9719 90.1004 71.3163 90.1767 71.6648 90.1759H94.9431C95.0932 90.1759 95.2372 90.2353 95.3434 90.3412C95.4496 90.447 95.5092 90.5905 95.5092 90.7402C95.5092 90.8898 95.4496 91.0334 95.3434 91.1392C95.2372 91.245 95.0932 91.3045 94.9431 91.3045Z" fill="#E5EEEE"/>
<path d="M47.8687 76.7385H114.082C114.454 76.7387 114.822 76.6636 115.164 76.5177C115.506 76.3718 115.814 76.1581 116.071 75.8898C116.327 75.6214 116.526 75.3039 116.656 74.9565C116.785 74.6091 116.843 74.2391 116.824 73.8689L113.789 30.2351C113.754 29.5338 113.45 28.8726 112.94 28.3886C112.429 27.9045 111.751 27.6348 111.047 27.6351H44.8253C44.4535 27.6349 44.0855 27.7101 43.7437 27.856C43.4019 28.0019 43.0934 28.2155 42.8369 28.4839C42.5805 28.7523 42.3815 29.0698 42.2519 29.4172C42.1224 29.7646 42.065 30.1346 42.0834 30.5048L45.1267 74.1385C45.1619 74.8397 45.4661 75.5006 45.9765 75.9846C46.4868 76.4685 47.1643 76.7384 47.8687 76.7385Z" fill="#D0E1E1"/>
<path d="M84.1957 78.5143H71.0851L71.6919 75.2633H84.3368L84.1957 78.5143Z" fill="#649292"/>
<path d="M70.5441 75.2614L69.9296 78.5142H71.0851L71.6919 75.2633L70.5441 75.2614Z" fill="#D0E1E1"/>
<path d="M48.6416 76.7385H114.855C115.227 76.7387 115.595 76.6636 115.937 76.5177C116.279 76.3718 116.587 76.1581 116.844 75.8898C117.1 75.6214 117.299 75.3039 117.429 74.9565C117.558 74.6091 117.616 74.2391 117.597 73.8689L114.562 30.2351C114.527 29.5338 114.223 28.8726 113.712 28.3886C113.202 27.9045 112.524 27.6348 111.82 27.6351H45.5982C45.2264 27.6349 44.8584 27.7101 44.5166 27.856C44.1748 28.0019 43.8663 28.2155 43.6099 28.4839C43.3534 28.7523 43.1544 29.0698 43.0249 29.4172C42.8953 29.7646 42.838 30.1346 42.8563 30.5048L45.8997 74.1385C45.9349 74.8397 46.2391 75.5006 46.7494 75.9846C47.2598 76.4685 47.9372 76.7384 48.6416 76.7385Z" fill="#E5EEEE"/>
<path d="M117.474 71.4422L114.562 30.2351C114.527 29.5338 114.223 28.8726 113.712 28.3886C113.202 27.9045 112.524 27.6348 111.82 27.6351H45.5982C45.2264 27.6349 44.8584 27.7101 44.5166 27.856C44.1748 28.0019 43.8663 28.2155 43.6099 28.4839C43.3534 28.7523 43.1544 29.0698 43.0249 29.4172C42.8953 29.7646 42.838 30.1346 42.8563 30.5048L45.776 71.7196" fill="#649292"/>
<path d="M48.1083 68.9174H114.844L112.007 30.1042H45.2736L48.1083 68.9174Z" fill="#E5EEEE"/>
<path d="M45.9634 39.5567L114.494 64.1488L112.007 30.1042H45.2736L45.9634 39.5567Z" fill="white"/>
<path d="M93.3277 62.5407H67.0756C66.9325 62.5405 66.7948 62.4865 66.6902 62.3893C66.5855 62.2921 66.5216 62.159 66.5114 62.0168L64.8709 39.5644C64.8624 39.4889 64.8693 39.4126 64.8911 39.3399C64.913 39.2671 64.9493 39.1996 64.9979 39.1412C65.0466 39.0828 65.1066 39.0348 65.1743 39C65.242 38.9653 65.316 38.9445 65.3919 38.9389C65.4679 38.9333 65.5442 38.9431 65.6163 38.9676C65.6883 38.9921 65.7547 39.0308 65.8114 39.0815C65.8681 39.1321 65.914 39.1937 65.9463 39.2624C65.9786 39.3312 65.9966 39.4057 65.9993 39.4815L67.607 61.4179H93.3277C93.4779 61.4179 93.6219 61.4773 93.728 61.5831C93.8342 61.6889 93.8939 61.8325 93.8939 61.9821C93.8939 62.1318 93.8342 62.2753 93.728 62.3812C93.6219 62.487 93.4779 62.5464 93.3277 62.5464V62.5407Z" fill="#649292"/>
<path d="M73.6629 59.8983H69.3288L68.3626 48.1097H72.6967L73.6629 59.8983Z" fill="#7EBD42"/>
<path d="M79.8055 59.8983H75.4714L74.5053 44.7759H78.8394L79.8055 59.8983Z" fill="#7EBD42"/>
<path d="M85.9484 59.8983H81.6142L80.6481 42.8616H84.9822L85.9484 59.8983Z" fill="#7EBD42"/>
<path d="M92.093 59.8984H87.7569L86.7908 39.5278H91.1268L92.093 59.8984Z" fill="#7EBD42"/>
<path d="M148.133 165.578C148.133 167.039 151.347 168.224 167.792 168.224C184.238 168.224 198.794 167.039 198.794 165.578C198.794 164.116 184.238 162.933 167.792 162.933C151.347 162.933 148.133 164.12 148.133 165.578Z" fill="#E5EEEE"/>
<path d="M212.336 104.824C212.2 104.825 212.069 104.776 211.966 104.688C211.863 104.6 211.796 104.478 211.775 104.345C211.433 102.08 210.916 99.8443 210.229 97.6581C210.192 97.5175 210.211 97.3679 210.281 97.2406C210.352 97.1134 210.469 97.0182 210.609 96.975C210.748 96.9317 210.899 96.9438 211.029 97.0086C211.16 97.0735 211.26 97.1861 211.31 97.323C212.011 99.5635 212.54 101.854 212.89 104.175C212.912 104.323 212.875 104.474 212.786 104.594C212.697 104.714 212.563 104.794 212.415 104.817C212.389 104.822 212.362 104.824 212.336 104.824Z" fill="#D0E1E1"/>
<path d="M209.416 104.824C209.281 104.824 209.15 104.776 209.047 104.688C208.945 104.6 208.878 104.478 208.858 104.345C208.514 102.08 207.997 99.8445 207.312 97.658C207.267 97.5155 207.281 97.3612 207.351 97.229C207.42 97.0968 207.54 96.9976 207.683 96.9531C207.826 96.9087 207.981 96.9227 208.113 96.992C208.246 97.0614 208.345 97.1804 208.39 97.3229C209.092 99.5634 209.621 101.854 209.973 104.175C209.995 104.323 209.957 104.474 209.868 104.594C209.779 104.714 209.645 104.794 209.497 104.817C209.47 104.822 209.443 104.824 209.416 104.824Z" fill="#D0E1E1"/>
<path d="M195.911 111.894C195.838 111.895 195.765 111.88 195.697 111.852C195.614 111.819 195.541 111.767 195.482 111.7C195.424 111.633 195.382 111.553 195.36 111.467L193.175 102.415C193.15 102.309 193.156 102.198 193.193 102.096C193.229 101.993 193.295 101.903 193.382 101.837C194.443 101.048 195.556 100.331 196.713 99.6898C198.607 98.644 202.253 97.812 202.408 97.7754C202.547 97.744 202.693 97.7662 202.816 97.8377C202.939 97.9091 203.031 98.0245 203.072 98.1606C203.768 100.377 205.148 107.536 205.198 107.84C205.213 107.918 205.211 107.998 205.193 108.075C205.175 108.152 205.14 108.224 205.091 108.287C205.043 108.351 204.982 108.403 204.912 108.441C204.842 108.479 204.765 108.502 204.686 108.509C204.661 108.509 202.199 108.701 200.064 109.678C198.489 110.394 196.226 111.812 196.199 111.825C196.111 111.873 196.012 111.897 195.911 111.894ZM194.365 102.502L196.28 110.444C197.356 109.785 198.465 109.181 199.604 108.636C200.999 108.033 202.472 107.629 203.98 107.436C203.656 105.78 202.726 101.123 202.143 98.9849C201.074 99.2526 198.616 99.9132 197.264 100.66C196.263 101.218 195.295 101.833 194.365 102.502Z" fill="#D0E1E1"/>
<path d="M159.567 44.0518C159.567 44.0518 159.578 47.4067 158.846 48.4814C158.114 49.5561 155.859 49.8295 155.859 49.8295C155.859 49.8295 162.608 61.4872 163.872 63.6654C164.626 64.9673 165.744 66.0225 167.089 66.7026L176.766 49.4212C176.766 49.4212 174.563 49.4694 173.868 48.4775C173.172 47.4857 172.917 44.1654 172.917 44.1654L159.567 44.0518Z" fill="#EBCDBA"/>
<path d="M173.137 46.3784C169.76 48.9687 167.796 49.7333 165.091 49.3193C163.18 49.0246 161.395 47.9364 159.53 46.4304C159.53 46.4304 159.804 45.4944 159.115 43.5684L157.833 41.8101L172.743 42.6902L173.137 46.3784Z" fill="#D2B39B"/>
<path d="M160.635 159.821C160.494 160.851 159.979 161.794 159.186 162.469C157.408 164.01 156.232 164.395 154.73 164.709C153.528 164.959 153.235 166.285 154.282 166.828C154.893 167.145 156.943 167.19 157.828 167.167C159.234 167.155 160.632 166.954 161.984 166.568C163.565 166.109 164.059 165.903 164.419 165.424C164.778 164.944 164.575 161.217 164.407 160.372C164.239 159.526 160.635 159.821 160.635 159.821Z" fill="black"/>
<path d="M181.74 159.821C181.881 160.851 182.398 161.794 183.191 162.469C184.969 164.01 186.143 164.395 187.635 164.709C188.839 164.959 189.131 166.285 188.085 166.828C187.475 167.145 185.423 167.19 184.54 167.167C183.133 167.155 181.734 166.954 180.381 166.568C178.801 166.109 178.306 165.903 177.947 165.424C177.587 164.944 177.79 161.217 177.96 160.372C178.13 159.526 181.74 159.821 181.74 159.821Z" fill="black"/>
<path d="M180.416 99.4741L177.802 87.4178C172.994 87.4178 167.083 90.8556 167.083 90.8556C167.083 90.8556 162.639 91.2408 157.833 91.2408L152.809 98.8232C152.809 98.8232 154.753 120.842 155.526 129.045C157.459 149.785 159.234 161.187 159.234 161.187C159.234 161.187 159.843 161.922 162.106 161.764C165.375 161.525 165.53 160.609 165.53 160.609C165.53 160.609 166.09 146.511 166.419 131.142C166.623 121.493 166.944 104.372 166.944 104.372L167.149 104.343C167.149 104.343 170.206 123.124 172.366 135.3C175.071 150.54 176.596 161.061 176.596 161.061C177.471 161.477 178.43 161.687 179.4 161.674C180.913 161.674 182.633 160.484 182.633 160.484C182.633 160.484 181.842 146.155 181.678 133.44C181.494 118.631 180.416 99.4741 180.416 99.4741Z" fill="#649292"/>
<path d="M178.689 90.2162C178.689 90.2162 175.079 92.9818 167.232 92.9818C155.213 92.9818 154.067 92.4676 154.067 92.4676L151.581 51.4338L154.96 49.7332L159.211 47.5511C159.211 47.5511 161.804 52.3332 166.347 52.3332C171.86 52.3332 173.866 48.4814 173.866 48.4814L179.44 50.1531L178.689 90.2162Z" fill="#FAE9CD"/>
<path d="M157.225 59.4149C156.034 62.6889 154.873 65.9418 153.716 69.2178L151.965 74.1366L151.065 76.6134C150.757 77.4492 150.45 78.2735 150.099 79.171L149.957 79.5177L149.801 79.8875L149.608 80.3323L149.414 80.7426C149.144 81.2818 148.873 81.7248 148.603 82.1639C148.06 83.0229 147.511 83.7855 146.957 84.527C145.853 86.01 144.721 87.387 143.583 88.7467C143.015 89.4266 142.439 90.0949 141.863 90.7593C141.287 91.4238 140.713 92.0882 140.124 92.743C139.535 93.3978 138.965 94.0584 138.385 94.7113L136.617 96.6777C136.323 97.0108 135.966 97.2829 135.567 97.4785C135.167 97.6741 134.733 97.7894 134.289 97.8177C133.392 97.875 132.508 97.5747 131.834 96.9829C131.499 96.6899 131.226 96.3342 131.03 95.936C130.834 95.5379 130.718 95.1051 130.69 94.6623C130.632 93.7682 130.934 92.888 131.527 92.2153L131.562 92.1768L132.383 91.2312L133.199 90.2586C133.74 89.6076 134.281 88.9547 134.812 88.298C135.871 86.9787 136.905 85.644 137.904 84.2978C138.903 82.9516 139.85 81.5881 140.704 80.2399C141.127 79.5658 141.527 78.8918 141.851 78.262C142.006 77.9558 142.157 77.6457 142.238 77.4049C142.259 77.3452 142.286 77.2836 142.304 77.2278C142.321 77.1719 142.327 77.1353 142.344 77.0737L142.479 76.5749C142.673 75.8449 142.866 75.0245 143.059 74.2137C143.252 73.4029 143.446 72.5728 143.616 71.7408C143.975 70.0806 144.324 68.4115 144.661 66.7334C145.335 63.3784 145.963 59.9926 146.535 56.6146C146.646 55.8876 146.9 55.1898 147.284 54.562C147.668 53.9341 148.173 53.3886 148.771 52.9575C149.368 52.5263 150.046 52.218 150.764 52.0506C151.483 51.8831 152.227 51.8599 152.955 51.9823C153.682 52.1046 154.378 52.3701 155.001 52.7632C155.625 53.1563 156.163 53.6691 156.586 54.2719C157.008 54.8746 157.306 55.5551 157.462 56.2738C157.618 56.9925 157.628 57.7348 157.493 58.4577C157.431 58.7837 157.341 59.1039 157.225 59.4149Z" fill="#AE8F68"/>
<path d="M162.888 98.619C160.152 103.255 151.165 100.622 151.165 100.622L152.891 84.2516L147.094 54.8562C146.497 52.5355 156.51 49.3519 156.51 49.3519L157.776 48.1135L159.188 47.1024C159.188 47.1024 159.381 51.4531 161.656 60.8516C162.519 64.4203 164.168 68.9001 166.142 74.7279C169.209 83.7817 165.667 93.9082 162.888 98.619Z" fill="#AE8F68"/>
<path d="M165.232 77.5514C165.01 77.3588 159.75 72.8367 156.409 59.4785C154.924 53.5447 156.23 49.8103 156.286 49.6562L156.728 49.8142C156.715 49.8508 155.416 53.5813 156.864 59.3687C160.164 72.5574 165.482 77.1508 165.534 77.1951L165.232 77.5514Z" fill="#CFBEA3"/>
<path d="M186.194 56.0734C186.754 59.4957 187.372 62.9316 188.035 66.3366C188.364 68.0417 188.706 69.7378 189.063 71.4249C189.241 72.2685 189.421 73.1082 189.61 73.9383C189.799 74.7683 189.996 75.5926 190.19 76.3572L190.429 77.2605C190.481 77.3837 190.51 77.4916 190.584 77.6457L190.68 77.8594L190.794 78.0905C191.106 78.7145 191.504 79.3963 191.927 80.0781C192.779 81.4436 193.749 82.8264 194.748 84.19C195.252 84.8717 195.767 85.5516 196.294 86.2295C196.821 86.9074 197.35 87.5796 197.882 88.2459C198.419 88.9142 198.966 89.5748 199.515 90.2354L200.342 91.2196L201.175 92.1825L201.206 92.2191C201.799 92.8934 202.099 93.7749 202.04 94.6697C201.981 95.5645 201.568 96.3994 200.892 96.9906C200.215 97.5819 199.331 97.881 198.433 97.8223C197.535 97.7636 196.698 97.3519 196.104 96.6777L194.313 94.6843L192.549 92.691C191.969 92.0246 191.376 91.3563 190.794 90.6784C190.213 90.0005 189.635 89.3302 189.055 88.6369C187.896 87.256 186.758 85.8597 185.639 84.346C185.079 83.5871 184.524 82.8052 183.973 81.9135L183.769 81.5746L183.562 81.2086C183.427 80.9775 183.286 80.6828 183.152 80.4132C183.083 80.2707 183.011 80.1051 182.944 79.951L182.779 79.5658L182.634 79.2076L182.499 78.8628C182.153 77.9711 181.848 77.1295 181.547 76.2821L180.66 73.7649L178.921 68.7671C177.779 65.4372 176.633 62.1304 175.46 58.8005C175.206 58.0772 175.106 57.3094 175.165 56.5455C175.224 55.7816 175.442 55.0382 175.804 54.3625C176.167 53.6868 176.666 53.0934 177.27 52.6199C177.875 52.1464 178.571 51.803 179.315 51.6115C180.06 51.42 180.836 51.3846 181.595 51.5074C182.353 51.6303 183.078 51.9088 183.724 52.3253C184.369 52.7418 184.92 53.2872 185.343 53.927C185.766 54.5669 186.051 55.2873 186.18 56.0426L186.194 56.0734Z" fill="#AE8F68"/>
<path d="M169.825 98.6191C172.559 103.255 182.513 100.237 182.513 100.237L179.45 80.7176L184.897 54.0223C185.494 51.7112 177.361 49.3481 177.361 49.3481L175.129 47.532L173.526 47.0986C173.526 47.0986 174.105 51.2047 171.058 60.8478C169.852 64.665 166.202 71.7832 165.864 76.5249C165.17 86.1834 166.989 93.8235 169.825 98.6191Z" fill="#AE8F68"/>
<path d="M166.591 77.2856L166.204 77.0063C166.289 76.8927 174.648 65.5605 175.556 57.4081C176.221 51.4647 175.1 48.2195 175.089 48.1887L175.531 48.0308C175.58 48.1656 176.7 51.3973 176.024 57.4678C175.11 65.7377 166.676 77.1777 166.591 77.2856Z" fill="#CFBEA3"/>
<path d="M148.473 27.015C148.902 30.6068 150.355 32.6252 151.687 32.4692C153.018 32.3132 153.233 30.0271 152.796 26.4353C152.359 22.8434 151.443 20.0797 150.106 20.23C148.769 20.3802 148.044 23.4212 148.473 27.015Z" fill="#F3D9C6"/>
<path d="M184.542 28.4382C183.8 31.98 182.223 33.8636 180.922 33.5882C179.622 33.3128 179.054 30.9862 179.796 27.4464C180.538 23.9065 182.2 21.2584 183.51 21.5319C184.82 21.8053 185.284 24.8984 184.542 28.4382Z" fill="#F3D9C6"/>
<path d="M182.292 17.6665C182.642 8.67055 174.579 2.28802 167.638 2.01839C161.787 1.79306 152.162 6.70995 151.793 16.486C151.66 19.9064 152.294 37.2051 154.467 39.8224C155.82 41.4517 157.024 43.004 158.987 44.2039C161.588 45.7928 162.643 46.7962 165.899 46.9214C168.878 47.0369 170.507 45.9372 173.412 44.306C175.558 43.0984 177.705 41.9178 178.853 39.9534C180.403 37.2686 182.192 20.4707 182.292 17.6665Z" fill="#F3D9C6"/>
<path d="M151.783 16.4763C151.65 19.8968 151.946 37.4689 154.12 40.0805C155.472 41.7117 156.676 43.264 158.639 44.462C161.24 46.0508 162.902 47.1236 166.158 47.2488C169.137 47.3643 170.988 46.4148 173.9 44.7817C176.047 43.5741 178.194 42.3935 179.34 40.4291C180.899 37.7559 182.182 20.4707 182.292 17.6569C182.292 17.6569 180.721 29.2337 179.661 31.9261C178.097 35.8993 173.238 34.8997 168.142 33.7981C163.279 32.7465 159.607 37.9485 156.431 36.2614C154.405 35.1848 153.041 29.6131 152.796 26.4391C152.55 23.2652 151.783 16.4802 151.783 16.4802" fill="#684A35"/>
<path d="M152.605 20.0278C153.051 18.5006 154.819 16.7191 155.391 15.1475C155.963 13.576 155.391 9.90901 155.391 9.90901L154.121 6.40767C153.542 6.17078 150.533 9.02308 150.149 14.8471C150.052 16.332 150.431 19.1053 150.922 21.4164C151.351 23.4598 151.955 25.2683 152.158 27.4542L152.802 27.4792C152.802 27.4792 152.156 21.5551 152.605 20.0278Z" fill="#684A35"/>
<path d="M150.92 21.4164C151.349 23.4598 151.967 25.326 152.17 27.5196L152.815 27.5447C152.815 27.5447 152.156 21.555 152.605 20.0336" fill="#AE8F68"/>
<path d="M181.033 21.1333C180.706 19.5752 179.009 17.6666 178.561 16.0488C178.113 14.4311 178.961 9.91476 178.961 9.91476L180.569 8.53579C181.16 8.3432 184.24 13.705 183.228 20.2416C182.808 22.9668 181.05 26.6973 180.98 29.6497L180.227 29.7171C180.227 29.7171 181.357 22.6837 181.033 21.1333Z" fill="#684A35"/>
<path d="M182.721 22.8935C182.271 25.0467 181.027 27.5851 180.982 29.6439L180.229 29.7113C180.229 29.7113 181.361 22.6836 181.034 21.1274" fill="#AE8F68"/>
<path d="M181.705 12.3703L180.567 8.53C180.567 8.53 179.407 3.24719 171.524 1.26541C162.481 -1.00911 157.346 0.121409 153.808 1.99726C149.405 4.33533 151.712 8.6263 153.08 9.32926C157.648 11.6731 162.183 8.77845 166.94 8.18526C171.698 7.59208 174.111 7.87519 178.188 9.4217C182.265 10.9682 181.257 12.6592 181.257 12.6592L181.705 12.3703Z" fill="#684A35"/>
<path d="M179.595 9.19255C179.595 9.19255 177.241 4.05417 168.94 2.93713C167.166 2.69831 165.155 3.06809 162.995 3.6478C159.76 4.51447 157.391 4.41817 157.391 4.41817C158.41 4.30644 159.415 4.08825 160.388 3.76721C162.2 3.17595 163.845 2.69254 165.23 2.37668C168.279 1.67565 173.012 2.29387 176.273 4.75713C178.186 6.20158 179.682 9.11744 179.682 9.11744L179.595 9.19255Z" fill="#AE8F68"/>
<path d="M150.332 18.1962C150.332 18.1962 151.685 17.2718 152.506 16.5572C153.144 15.996 153.705 15.3537 154.176 14.6467L154.493 14.7719C154.493 14.7719 153.567 16.6247 152.396 17.6473C151.791 18.1965 151.134 18.6848 150.433 19.1052L150.332 18.1962Z" fill="#AE8F68"/>
<path d="M183.313 19.8275C183.313 19.8275 182.153 18.905 181.479 18.2059C180.949 17.6594 180.494 17.0455 180.126 16.3801L180.005 16.4764C180.005 16.4764 180.532 18.1943 181.51 19.192C182.014 19.726 182.57 20.2092 183.17 20.6345L183.313 19.8275Z" fill="#AE8F68"/>
<path d="M166.62 34.4511H166.585C166.21 34.4357 165.795 34.245 165.352 34.0428C164.865 33.8213 164.316 33.569 163.858 33.5844C163.756 33.5882 163.656 33.5513 163.581 33.4818C163.506 33.4123 163.461 33.3158 163.457 33.2137C163.454 33.1115 163.491 33.012 163.56 32.9371C163.63 32.8621 163.727 32.8179 163.829 32.814C164.467 32.789 165.109 33.0817 165.675 33.3417C166.028 33.5035 166.394 33.6711 166.616 33.6788C166.788 33.6788 167.255 33.465 167.632 33.2936C168.357 32.9546 169.178 32.5714 169.858 32.6484C169.909 32.6541 169.958 32.6697 170.003 32.6943C170.047 32.7189 170.087 32.7521 170.119 32.7919C170.151 32.8317 170.174 32.8773 170.188 32.9262C170.202 32.9751 170.207 33.0264 170.201 33.0769C170.195 33.1275 170.18 33.1765 170.155 33.221C170.13 33.2656 170.097 33.3049 170.057 33.3366C170.017 33.3684 169.971 33.3919 169.922 33.406C169.873 33.4201 169.822 33.4245 169.771 33.4188C169.307 33.3668 168.56 33.7154 167.961 33.9966C167.41 34.2469 166.971 34.4511 166.62 34.4511Z" fill="black"/>
<path d="M159.895 23.9047C159.273 23.8759 158.652 23.9915 158.082 24.2425C157.512 24.4935 157.008 24.873 156.61 25.3511C157.219 26.262 158.407 26.6549 159.785 26.6992C161.163 26.7435 162.372 26.6106 163.051 25.7478C162.442 24.8465 161.273 23.9586 159.895 23.9047Z" fill="white"/>
<path d="M159.957 26.0906C159.823 26.0852 159.692 26.0532 159.57 25.9967C159.449 25.9402 159.34 25.8601 159.25 25.7612C159.065 25.5572 158.967 25.289 158.977 25.014C159.001 24.4169 159.557 24.2051 160.015 24.2051H160.077C160.305 24.2051 161.043 24.3033 161.016 25.091C161.009 25.3565 160.899 25.6091 160.709 25.7953C160.519 25.9815 160.264 26.0867 159.998 26.0886L159.957 26.0906Z" fill="black"/>
<path d="M160.015 24.494H160.067C160.255 24.4917 160.438 24.5536 160.585 24.6693C160.638 24.723 160.678 24.788 160.703 24.8593C160.727 24.9307 160.735 25.0066 160.726 25.0814C160.722 25.2722 160.644 25.454 160.508 25.5884C160.372 25.7227 160.189 25.7992 159.998 25.8017H159.971C159.776 25.7907 159.593 25.7038 159.462 25.5597C159.33 25.4156 159.261 25.2258 159.269 25.0313C159.288 24.5248 159.895 24.4998 160.017 24.4998L160.015 24.494ZM160.017 23.922C159.325 23.922 158.718 24.3072 158.689 25.0082C158.674 25.3569 158.797 25.6976 159.033 25.9557C159.269 26.2138 159.598 26.3683 159.947 26.3853H160C160.341 26.3824 160.667 26.2481 160.911 26.0104C161.155 25.7727 161.297 25.4501 161.308 25.1103C161.337 24.3784 160.813 23.9547 160.09 23.9239L160.017 23.922Z" fill="#44260F"/>
<path d="M159.92 24.6404C159.916 24.7178 159.889 24.7921 159.842 24.8541C159.795 24.9161 159.731 24.963 159.658 24.989C159.585 25.0151 159.506 25.0191 159.43 25.0006C159.355 24.982 159.286 24.9418 159.234 24.8848C159.181 24.8278 159.146 24.7567 159.134 24.6802C159.121 24.6037 159.132 24.5253 159.164 24.4547C159.196 24.384 159.248 24.3244 159.314 24.2831C159.38 24.2418 159.456 24.2208 159.534 24.2225C159.587 24.224 159.639 24.236 159.688 24.258C159.736 24.2799 159.78 24.3113 159.816 24.3502C159.852 24.3892 159.879 24.4349 159.897 24.4848C159.915 24.5346 159.923 24.5875 159.92 24.6404Z" fill="white"/>
<path d="M173.757 24.5229C175.135 24.5768 176.314 25.2162 176.925 26.1002C175.958 26.8128 175.033 27.2153 173.655 27.1633C172.277 27.1113 171.431 26.8166 170.469 26.0809C171.145 25.247 172.38 24.4709 173.757 24.5229Z" fill="white"/>
<path d="M173.568 26.6683C173.31 26.6636 173.064 26.5609 172.88 26.3814C172.793 26.2941 172.725 26.1894 172.682 26.0742C172.638 25.9591 172.62 25.836 172.627 25.7131C172.632 25.4571 172.736 25.2131 172.919 25.0331C173.102 24.8532 173.348 24.7516 173.605 24.7501H173.643C173.772 24.7552 173.898 24.7857 174.014 24.8399C174.131 24.8941 174.235 24.971 174.322 25.066C174.5 25.2612 174.594 25.5187 174.582 25.7824C174.578 25.9038 174.549 26.023 174.498 26.1332C174.446 26.2434 174.374 26.3423 174.284 26.4244C174.194 26.5064 174.089 26.5698 173.974 26.6111C173.86 26.6523 173.738 26.6704 173.616 26.6645L173.568 26.6683Z" fill="black"/>
<path d="M173.605 25.0448H173.632C173.722 25.0487 173.81 25.0702 173.892 25.1082C173.973 25.1462 174.047 25.2 174.107 25.2663C174.172 25.3345 174.222 25.4147 174.255 25.5023C174.288 25.5899 174.304 25.6831 174.3 25.7767C174.297 25.8611 174.276 25.944 174.24 26.0204C174.204 26.0968 174.152 26.1652 174.089 26.2215C174.026 26.2779 173.952 26.321 173.872 26.3485C173.792 26.376 173.707 26.3872 173.622 26.3814H173.587C173.5 26.3855 173.412 26.3714 173.33 26.34C173.248 26.3086 173.174 26.2607 173.111 26.1991C173.049 26.1376 173 26.0639 172.967 25.9826C172.935 25.9012 172.92 25.8141 172.923 25.7266C172.927 25.5464 173.002 25.3749 173.13 25.2481C173.259 25.1214 173.432 25.0492 173.613 25.0468L173.605 25.0448ZM173.613 24.469C173.282 24.4718 172.966 24.6019 172.729 24.832C172.493 25.0621 172.355 25.3744 172.345 25.7035C172.339 25.8668 172.366 26.0297 172.424 26.1824C172.483 26.335 172.572 26.4742 172.686 26.5916C172.8 26.7089 172.937 26.802 173.088 26.8652C173.24 26.9284 173.402 26.9604 173.566 26.9592H173.622C173.781 26.9657 173.939 26.9409 174.088 26.8863C174.238 26.8317 174.374 26.7484 174.491 26.6411C174.608 26.5338 174.703 26.4046 174.769 26.2609C174.836 26.1172 174.874 25.9619 174.88 25.8037C174.896 25.4661 174.776 25.1361 174.548 24.8861C174.32 24.6362 174.001 24.4869 173.663 24.4709L173.613 24.469Z" fill="#44260F"/>
<path d="M173.508 25.3491C173.504 25.4251 173.478 25.4982 173.432 25.5593C173.387 25.6203 173.324 25.6666 173.252 25.6922C173.181 25.7178 173.103 25.7217 173.029 25.7032C172.955 25.6848 172.888 25.645 172.836 25.5887C172.785 25.5324 172.752 25.4623 172.74 25.387C172.729 25.3118 172.74 25.2349 172.772 25.1661C172.805 25.0972 172.857 25.0394 172.922 25C172.987 24.9606 173.063 24.9414 173.139 24.9447C173.19 24.9469 173.24 24.9592 173.286 24.9807C173.332 25.0023 173.374 25.0328 173.408 25.0704C173.442 25.1079 173.469 25.1519 173.486 25.1998C173.503 25.2476 173.511 25.2984 173.508 25.3491Z" fill="white"/>
<path d="M156.431 24.5055C156.431 24.5055 157.976 26.0944 159.364 26.2985C160.751 26.5027 163.035 25.9519 163.035 25.9519C163.035 25.9519 165.161 26.2639 162.79 27.4136C160.419 28.5634 157.779 28.3766 157.779 28.3766L156.197 26.9283L156.431 24.5055Z" fill="#F3D9C6"/>
<path d="M170.192 26.0694C171.085 26.4154 172.011 26.6684 172.956 26.8244C174.349 27.0285 177.68 25.3298 177.68 25.3298C177.68 25.3298 178.76 26.7897 176.387 27.9395C174.014 29.0892 171.377 28.9024 171.377 28.9024L169.794 27.4522L170.192 26.0694Z" fill="#F3D9C6"/>
<path d="M178.204 22.7395C178.054 22.7391 177.909 22.6897 177.79 22.5989C176.821 21.9501 175.724 21.5142 174.573 21.3201C172.733 20.9927 171.023 21.8074 171.006 21.8151C170.845 21.8838 170.663 21.8882 170.499 21.8273C170.334 21.7665 170.2 21.645 170.122 21.4881C170.045 21.3311 170.032 21.1507 170.084 20.9839C170.137 20.8172 170.252 20.6769 170.405 20.5921C170.49 20.5517 172.53 19.5714 174.812 19.9777C176.179 20.2069 177.479 20.7329 178.619 21.5185C178.732 21.6051 178.816 21.725 178.857 21.8613C178.899 21.9975 178.897 22.1434 178.851 22.2783C178.805 22.4132 178.718 22.5305 178.602 22.6135C178.486 22.6966 178.347 22.7413 178.204 22.7414V22.7395Z" fill="#684A35"/>
<path d="M155.254 22.4024C155.104 22.4032 154.959 22.355 154.839 22.2651C154.72 22.1753 154.633 22.0488 154.593 21.9052C154.553 21.7616 154.561 21.6088 154.617 21.4704C154.672 21.3319 154.772 21.2155 154.9 21.139C156.126 20.4609 157.479 20.0426 158.875 19.9102C161.074 19.7177 163.387 20.1991 163.485 20.2203C163.66 20.2614 163.811 20.3689 163.907 20.5197C164.002 20.6706 164.035 20.8529 163.997 21.0273C163.959 21.2018 163.854 21.3546 163.705 21.4529C163.555 21.5512 163.373 21.5871 163.198 21.5531C163.174 21.5531 160.987 21.0851 158.999 21.268C157.809 21.3839 156.654 21.737 155.604 22.3061C155.498 22.3693 155.377 22.4026 155.254 22.4024Z" fill="#684A35"/>
<path d="M163.051 26.0463C163.003 26.0465 162.956 26.0348 162.913 26.0122C162.871 25.9897 162.835 25.9571 162.809 25.9172C161.988 24.6885 161.07 24.0472 160.085 24.0087C158.699 23.9528 157.331 24.4247 156.759 25.1507C156.735 25.1808 156.706 25.206 156.673 25.2248C156.639 25.2436 156.603 25.2557 156.565 25.2603C156.527 25.265 156.488 25.2621 156.451 25.2519C156.414 25.2417 156.38 25.2243 156.349 25.2008C156.319 25.1773 156.294 25.1481 156.275 25.1148C156.256 25.0816 156.244 25.0449 156.239 25.007C156.235 24.9691 156.238 24.9307 156.248 24.8938C156.258 24.857 156.276 24.8226 156.299 24.7925C157.097 23.7795 158.786 23.3789 160.104 23.429C161.286 23.4752 162.357 24.1993 163.288 25.5956C163.309 25.6272 163.324 25.6627 163.331 25.6999C163.339 25.7372 163.339 25.7755 163.331 25.8127C163.323 25.8499 163.309 25.8852 163.287 25.9167C163.266 25.9482 163.239 25.9752 163.207 25.9962C163.161 26.0279 163.107 26.0453 163.051 26.0463Z" fill="#D2B39B"/>
<path d="M170.476 26.1754C170.411 26.1758 170.348 26.1541 170.297 26.1137C170.237 26.066 170.198 25.9966 170.189 25.9205C170.18 25.8444 170.201 25.7678 170.248 25.7074C170.963 24.7983 172.474 23.9105 173.972 23.974C175.469 24.0376 176.625 24.6 177.278 25.5783C177.302 25.6097 177.32 25.6457 177.33 25.6841C177.34 25.7226 177.341 25.7626 177.335 25.8017C177.328 25.8409 177.314 25.8782 177.292 25.9116C177.271 25.9449 177.243 25.9734 177.21 25.9954C177.177 26.0174 177.139 26.0324 177.1 26.0394C177.061 26.0464 177.021 26.0453 176.982 26.0362C176.943 26.027 176.907 26.0101 176.875 25.9863C176.843 25.9625 176.817 25.9325 176.797 25.898C176.248 25.0795 175.238 24.6 173.951 24.5499C172.664 24.4998 171.313 25.2972 170.704 26.0714C170.676 26.1043 170.642 26.1307 170.602 26.1487C170.563 26.1666 170.52 26.1757 170.476 26.1754Z" fill="#D2B39B"/>
<path d="M167.847 38.274C166.047 38.2536 164.252 38.1146 162.471 37.858C162.416 37.8495 162.362 37.8303 162.314 37.8013C162.266 37.7723 162.225 37.7342 162.191 37.6891C162.158 37.6441 162.134 37.5929 162.121 37.5386C162.107 37.4843 162.105 37.4279 162.114 37.3727C162.122 37.3174 162.141 37.2644 162.17 37.2166C162.199 37.1687 162.238 37.1271 162.283 37.094C162.328 37.0609 162.379 37.0371 162.434 37.0237C162.488 37.0104 162.545 37.0079 162.6 37.0164C164.392 37.2761 166.2 37.4112 168.011 37.4208C170.119 37.3997 170.965 37.0954 170.973 37.0915C171.079 37.0511 171.196 37.0544 171.3 37.1004C171.403 37.1465 171.484 37.2316 171.525 37.3371C171.565 37.4425 171.562 37.5597 171.516 37.6628C171.47 37.766 171.384 37.8466 171.278 37.8869C171.24 37.9004 170.312 38.249 168.021 38.2721L167.847 38.274Z" fill="black"/>
<path d="M128.526 93.4768C130.136 91.5335 133.148 90.7593 135.096 92.3617C137.044 93.9641 136.911 96.4331 135.303 98.3764C133.695 100.32 131.222 101.003 129.272 99.399C127.323 97.7947 126.928 95.422 128.526 93.4768Z" fill="#F3D9C6"/>
<path d="M125.11 103.338C124.848 103.337 124.595 103.241 124.399 103.067C124.203 102.893 124.078 102.653 124.047 102.394C124.02 102.167 123.854 100.083 125.91 96.7817C126.596 95.6834 127.359 94.6344 128.192 93.6425C128.381 93.4378 128.642 93.3145 128.92 93.2986C129.199 93.2828 129.473 93.3756 129.683 93.5575C129.894 93.7393 130.026 93.9959 130.05 94.2728C130.074 94.5497 129.989 94.8252 129.813 95.0407C129.054 95.9494 128.358 96.9088 127.73 97.9122C126.078 100.551 126.184 102.13 126.184 102.149C126.201 102.288 126.19 102.43 126.151 102.565C126.113 102.699 126.048 102.825 125.961 102.935C125.874 103.045 125.766 103.137 125.643 103.206C125.52 103.274 125.385 103.317 125.245 103.334C125.2 103.338 125.155 103.34 125.11 103.338Z" fill="#F3D9C6"/>
<path d="M128.343 105.791C128.101 105.792 127.866 105.71 127.677 105.56C127.487 105.41 127.355 105.2 127.301 104.965C127.272 104.842 127.031 103.703 127.259 101.641C127.461 99.6468 127.951 97.6924 128.714 95.838C128.768 95.7044 128.848 95.5831 128.951 95.4813C129.053 95.3795 129.175 95.2993 129.309 95.2456C129.443 95.1919 129.586 95.1658 129.731 95.1688C129.875 95.1718 130.018 95.2039 130.149 95.2631C130.281 95.3223 130.4 95.4075 130.497 95.5134C130.595 95.6194 130.671 95.744 130.719 95.8797C130.767 96.0154 130.788 96.1595 130.779 96.3032C130.77 96.447 130.732 96.5875 130.667 96.7162C130.002 98.3677 129.573 100.104 129.39 101.874C129.197 103.573 129.39 104.487 129.39 104.497C129.424 104.653 129.422 104.814 129.385 104.97C129.348 105.125 129.277 105.27 129.176 105.394C129.075 105.518 128.948 105.618 128.804 105.687C128.659 105.756 128.501 105.791 128.341 105.791H128.343Z" fill="#F3D9C6"/>
<path d="M130.3 105.803C130.254 105.807 130.207 105.807 130.161 105.803C130.021 105.785 129.887 105.739 129.765 105.669C129.643 105.599 129.536 105.506 129.45 105.395C129.364 105.283 129.301 105.156 129.265 105.021C129.228 104.885 129.219 104.744 129.237 104.605C129.74 100.78 129.79 100.583 130.318 99.193L130.407 98.9599C130.611 98.4207 130.729 98.1048 130.793 97.9238L130.845 97.7967C130.849 97.7842 130.853 97.7719 130.859 97.7601V97.735C131.286 96.8414 131.96 96.9647 132.242 97.0744C132.378 97.125 132.502 97.2022 132.607 97.3015C132.711 97.4009 132.795 97.5203 132.853 97.6526C132.91 97.7849 132.94 97.9274 132.941 98.0717C132.942 98.2159 132.914 98.3588 132.859 98.4919C132.859 98.5189 132.837 98.5439 132.828 98.567C132.779 98.6922 132.665 98.9927 132.395 99.711L132.304 99.9479C131.852 101.14 131.825 101.211 131.338 104.88C131.303 105.132 131.18 105.363 130.989 105.532C130.799 105.701 130.555 105.797 130.3 105.803Z" fill="#F3D9C6"/>
<path d="M131.834 105.104C131.712 105.103 131.592 105.082 131.477 105.04C131.344 104.993 131.222 104.921 131.117 104.827C131.013 104.733 130.928 104.62 130.867 104.493C130.806 104.366 130.772 104.229 130.765 104.089C130.758 103.949 130.778 103.809 130.826 103.676C130.855 103.59 131.587 101.544 132.625 99.1679C133.498 97.1649 133.666 96.6372 133.682 96.5871C133.761 96.3226 133.941 96.099 134.182 95.9633C134.424 95.8277 134.708 95.7904 134.977 95.8594C135.245 95.9284 135.476 96.0983 135.622 96.3334C135.767 96.5685 135.816 96.8506 135.757 97.1206C135.726 97.2439 135.554 97.8159 134.598 100.021C133.591 102.332 132.859 104.372 132.859 104.391C132.784 104.601 132.645 104.783 132.461 104.911C132.278 105.039 132.058 105.106 131.834 105.104Z" fill="#F3D9C6"/>
<path d="M120.245 93.7064L116.737 98.6787C116.303 99.2939 116.452 100.143 117.069 100.576L128.06 108.278C128.677 108.71 129.529 108.562 129.963 107.947L133.47 102.975C133.904 102.359 133.756 101.51 133.138 101.077L122.148 93.3757C121.531 92.9432 120.678 93.0913 120.245 93.7064Z" fill="black"/>
<path d="M122.489 94.3091L118.067 100.578L127.722 107.344L132.144 101.075L122.489 94.3091Z" fill="#7EBD42"/>
<path d="M125.104 103.334C126.494 103.334 127.62 102.211 127.62 100.826C127.62 99.4413 126.494 98.3186 125.104 98.3186C123.715 98.3186 122.588 99.4413 122.588 100.826C122.588 102.211 123.715 103.334 125.104 103.334Z" fill="white"/>
<path d="M124.223 102.126C124.146 102.129 124.071 102.102 124.015 102.05C123.958 101.998 123.925 101.925 123.922 101.849C123.919 101.772 123.946 101.697 123.998 101.641C124.051 101.585 124.123 101.551 124.2 101.548L125.332 101.458L125.18 99.5569C125.173 99.4803 125.198 99.4044 125.248 99.3459C125.298 99.2874 125.369 99.2511 125.446 99.2449C125.523 99.2388 125.599 99.2634 125.658 99.3132C125.717 99.3631 125.753 99.4341 125.759 99.5107L125.935 101.701C125.941 101.777 125.916 101.853 125.866 101.911C125.816 101.97 125.745 102.006 125.669 102.013L124.248 102.124L124.223 102.126Z" fill="#7EBD42"/>
<path d="M124.664 96.6295C124.434 96.6302 124.211 96.5575 124.026 96.4219C123.841 96.2864 123.705 96.0952 123.637 95.8766C123.57 95.658 123.574 95.4236 123.651 95.2079C123.727 94.9922 123.871 94.8066 124.061 94.6785C124.156 94.615 125.054 94.0295 127.493 93.0492C130.213 91.9553 130.722 92.1517 130.996 92.2576C131.238 92.3517 131.437 92.5301 131.557 92.7597C131.677 92.9893 131.71 93.2546 131.648 93.5061C131.587 93.7577 131.436 93.9785 131.224 94.1275C131.011 94.2766 130.752 94.3437 130.494 94.3165C130.36 94.3319 129.792 94.4282 128.295 95.031C126.074 95.9227 125.263 96.4485 125.255 96.4543C125.079 96.5683 124.874 96.6292 124.664 96.6295Z" fill="#F3D9C6"/>
<path d="M203.179 93.4768C201.571 91.5335 198.557 90.7593 196.609 92.3617C194.661 93.9641 194.794 96.4331 196.402 98.3764C198.01 100.32 200.483 101.003 202.433 99.399C204.382 97.7947 204.786 95.422 203.179 93.4768Z" fill="#F3D9C6"/>
<path d="M207.658 102.394L205.532 102.145V102.165C205.532 102.149 205.638 100.558 203.986 97.9122C203.359 96.9088 202.663 95.95 201.903 95.0426C201.717 94.8283 201.624 94.549 201.644 94.2662C201.664 93.9834 201.796 93.7202 202.011 93.5345C202.226 93.3489 202.507 93.2559 202.79 93.2762C203.074 93.2964 203.338 93.4281 203.524 93.6424C204.358 94.6341 205.119 95.6831 205.804 96.7817C207.86 100.079 207.685 102.167 207.658 102.394Z" fill="#F3D9C6"/>
<path d="M203.36 105.795C203.279 105.795 203.199 105.786 203.121 105.768C202.845 105.706 202.605 105.537 202.454 105.299C202.302 105.06 202.252 104.772 202.313 104.497C202.313 104.466 202.506 103.553 202.313 101.874C202.13 100.103 201.699 98.3671 201.032 96.7162C200.916 96.458 200.908 96.1647 201.009 95.9004C201.11 95.6362 201.312 95.4227 201.571 95.3065C201.829 95.1904 202.124 95.1811 202.389 95.2807C202.655 95.3803 202.87 95.5807 202.987 95.838C203.751 97.6921 204.242 99.6466 204.444 101.641C204.67 103.703 204.429 104.842 204.402 104.965C204.347 105.2 204.215 105.41 204.026 105.561C203.837 105.711 203.602 105.794 203.36 105.795Z" fill="#F3D9C6"/>
<path d="M201.405 105.803C201.145 105.803 200.893 105.708 200.698 105.537C200.502 105.366 200.376 105.13 200.342 104.873C199.861 101.213 199.834 101.132 199.376 99.9402L199.285 99.7033C198.924 98.7404 198.843 98.5304 198.823 98.4842C198.767 98.3511 198.739 98.2082 198.74 98.0639C198.741 97.9196 198.771 97.777 198.828 97.6446C198.886 97.5122 198.97 97.3927 199.075 97.2934C199.18 97.1941 199.304 97.117 199.44 97.0667C199.722 96.9627 200.394 96.8337 200.821 97.7273V97.7524C200.844 97.8044 200.868 97.8583 200.889 97.9161C200.958 98.0971 201.082 98.413 201.275 98.9522L201.364 99.1853C201.892 100.576 201.944 100.772 202.446 104.597C202.483 104.878 202.406 105.162 202.233 105.387C202.06 105.611 201.804 105.758 201.523 105.795C201.484 105.8 201.444 105.803 201.405 105.803Z" fill="#F3D9C6"/>
<path d="M199.871 105.104C199.649 105.103 199.433 105.035 199.252 104.907C199.071 104.779 198.934 104.599 198.86 104.391C198.86 104.372 198.122 102.326 197.121 100.021C196.155 97.8159 195.985 97.2439 195.961 97.1207C195.89 96.8461 195.932 96.5547 196.076 96.3105C196.221 96.0664 196.457 95.8895 196.732 95.8187C197.008 95.748 197.3 95.7892 197.545 95.9333C197.79 96.0774 197.968 96.3126 198.039 96.5872C198.052 96.6373 198.22 97.165 199.096 99.1679C200.131 101.545 200.864 103.598 200.895 103.677C200.951 103.838 200.968 104.01 200.945 104.179C200.921 104.349 200.857 104.51 200.758 104.649C200.659 104.789 200.528 104.903 200.376 104.982C200.224 105.061 200.056 105.103 199.884 105.104H199.871Z" fill="#F3D9C6"/>
<path d="M189.728 103.804C189.728 103.804 189.386 102.48 193.786 99.3624C198.628 95.9323 212.529 94.6343 212.529 94.6343L216.007 108.601C216.007 108.601 201.09 110.45 196.516 114.14C193.649 116.467 193.206 117.46 193.206 117.46L189.728 103.804Z" fill="#E5EEEE"/>
<path d="M207.045 96.6296C206.833 96.6291 206.626 96.5661 206.45 96.4485C206.427 96.4331 205.609 95.9112 203.41 95.0272C201.913 94.4244 201.345 94.3281 201.211 94.3127C200.953 94.3399 200.694 94.2728 200.481 94.1237C200.269 93.9747 200.118 93.7539 200.057 93.5023C199.995 93.2508 200.028 92.9855 200.148 92.7559C200.267 92.5263 200.467 92.3479 200.709 92.2539C200.983 92.1479 201.494 91.9515 204.212 93.0454C206.651 94.0257 207.549 94.6112 207.644 94.6747C207.834 94.8028 207.978 94.9882 208.055 95.2039C208.132 95.4196 208.137 95.6541 208.07 95.8729C208.003 96.0917 207.867 96.2833 207.682 96.4195C207.498 96.5557 207.275 96.6293 207.045 96.6296Z" fill="#F3D9C6"/>
</svg>
